# xmcd
#
# Track frame offsets: 
#        150
#        18029
#        39162
#        67970
#        83093
#        105121
#        122420
#        140399
#        167253
#        184419
#
# Disc length: 2658 seconds
#
# Revision: 0
# Processed by: cddbd v1.5.2PL0 Copyright (c) Steve Scherf et al.
# Submitted via: ExactAudioCopy v0.95b4
#
DISCID=660a600a
DTITLE=Mike Therieau - Living From A Suitcase
DYEAR=2006
DGENRE=Singer/Songwriter
TTITLE0=Wear You off My Mind
TTITLE1=Tomorrow's Woman
TTITLE2=Devil Make My Bed
TTITLE3=I'm Sorry
TTITLE4=Midnight Apt. #9 Blues
TTITLE5=Living from a Suitcase
TTITLE6=Sometimes Some Words
TTITLE7=Holding On
TTITLE8=I Stole a Heart
TTITLE9=Creeping Round
EXTD=
EXTT0=
EXTT1=
EXTT2=
EXTT3=
EXTT4=
EXTT5=
EXTT6=
EXTT7=
EXTT8=
EXTT9=
PLAYORDER=
